<svg xmlns="http://www.w3.org/2000/svg" width="24" height="24" viewBox="0 0 24 24">
<path d="M12 2C6.48 2 2 6.48 2 12s4.48 10 10 10c2.26 0 4.33-.74 6-2l.72-.71-.72-.71A5.9 5.9 0 0 1 15 19c-3.31 0-6-2.69-6-6s2.69-6 6-6c1.66 0 3.14.69 4.22 1.78A5.97 5.97 0 0 1 21 12c0 .87-.19 1.7-.52 2.45-.4.91-.89 1.76-1.5 2.5l.71.71c.73-.85 1.32-1.82 1.76-2.86.43-1.09.66-2.27.66-3.5v-.09c0-1.06-.21-2.07-.58-3.01-.36-.93-.89-1.77-1.56-2.48A7.89 7.89 0 0 0 12 2zm0 6c-2.21 0-4 1.79-4 4s1.79 4 4 4c.99 0 1.9-.36 2.61-.96l-1.08-1.07c-.43.33-.96.53-1.53.53-1.38 0-2.5-1.12-2.5-2.5S10.62 10 12 10c.79 0 1.49.37 1.93.93L15.56 9.8C14.7 8.7 13.42 8 12 8z" fill="#000000"/>
</svg>
